<svg width="103" height="30" viewBox="0 0 103 30" fill="none" xmlns="http://www.w3.org/2000/svg">
<path d="M73.1144 5.82524C74.7042 5.82524 75.993 4.52122 75.993 2.91262C75.993 1.30403 74.7042 0 73.1144 0C71.5247 0 70.2359 1.30403 70.2359 2.91262C70.2359 4.52122 71.5247 5.82524 73.1144 5.82524Z" fill="#7811CA"/>
<path d="M70.2359 10.4854V30H75.993V8.15534H72.5387C71.2669 8.15534 70.2359 9.19856 70.2359 10.4854Z" fill="#7811CA"/>
<path d="M2.48704 3.78641H0V15.5348C0 15.5674 0.000313001 15.6 0.000935987 15.6325C0.0383405 18.6176 0.887913 20.0624 6.90848 21.2621L6.90845 8.48576C6.90845 5.89038 4.92893 3.78641 2.48704 3.78641Z" fill="#7811CA"/>
<path d="M0 19.5146C0 21.0322 1.76514 23.0479 13.8169 23.1017H14.3926C16.9362 23.1017 18.9982 25.0783 18.9982 27.5166V30H6.90845C3.09303 30 0 27.0351 0 23.3776V19.5146Z" fill="#7811CA"/>
<path d="M21.3011 19.1854C21.3011 26.3808 25.4631 30 31.6637 30C37.8643 30 42.0264 26.3377 42.0264 19.1854V8.15534H36.293V19.1854C36.293 22.8908 34.4243 24.5711 31.6637 24.5711C28.9032 24.5711 27.0345 22.8908 27.0345 19.1854V16.0211H27.0539V10.4859C27.0539 9.19879 26.0237 8.15534 24.7528 8.15534H21.3011V19.1854Z" fill="#7811CA"/>
<path d="M46.632 30V27.674L46.632 27.6699L46.632 8.15534L49.5106 8.15534C50.2714 8.15534 50.9461 8.5287 51.3654 9.10423C52.7343 8.46841 54.3518 8.15534 56.1528 8.15534C61.7787 8.15534 65.587 11.2145 65.6303 17.8497V17.979H59.788V17.7635C59.788 14.6183 58.2733 13.5842 56.1528 13.5842C53.989 13.5842 52.4743 14.6183 52.4743 17.7635V30H46.632Z" fill="#7811CA"/>
<path fill-rule="evenodd" clip-rule="evenodd" d="M90.4562 29.7163C85.8125 29.7163 80.5986 26.2334 80.5986 19.1846C80.5986 12.5919 85.0793 8.15534 91.4745 8.15534C97.7882 8.15534 102.188 12.4675 102.188 19.1431V30H99.3837C98.145 30 97.1407 28.9839 97.1407 27.7304V25.4901L97.1365 25.487C95.996 28.2651 93.5112 29.7163 90.4562 29.7163ZM91.4338 24.4919C94.5703 24.4919 96.6884 22.2114 96.6884 18.9358C96.6884 15.6602 94.5703 13.3797 91.4338 13.3797C88.2973 13.3797 86.1791 15.6602 86.1791 18.9358C86.1791 22.2114 88.2973 24.4919 91.4338 24.4919Z" fill="#7811CA"/>
</svg>
